<?xml version="1.0" encoding="UTF-8" standalone="no"?>
<!-- Created with Inkscape (http://www.inkscape.org/) -->

<svg
   width="56.203613"
   height="373.22318"
   viewBox="0 0 56.203613 373.22318"
   version="1.1"
   id="svg1"
   xml:space="preserve"
   xmlns="http://www.w3.org/2000/svg"
   xmlns:svg="http://www.w3.org/2000/svg"><defs
     id="defs1" /><g
     id="layer1"
     transform="translate(5460.4731,301.69543)"><g
       id="g824"><g
         id="g760"
         transform="matrix(0.42334996,0,0,0.42334996,-2931.0648,-238.03091)"><g
           id="g743"
           transform="translate(-901.75684,-207.59194)"
           style="stroke:#700b04;stroke-width:1;stroke-dasharray:none;stroke-opacity:0.544148"><g
             id="g728"
             transform="translate(577.68798,9.3933004)"
             style="stroke:#700b04;stroke-width:1;stroke-dasharray:none;stroke-opacity:0.544148"><path
               style="opacity:1;fill:#f7be75;fill-opacity:1;stroke:#700b04;stroke-width:1;stroke-linecap:round;stroke-linejoin:round;stroke-dasharray:none;stroke-opacity:0.544148;paint-order:fill markers stroke"
               d="m -5606.1565,445.24244 0.4696,92.75884 c 0,0 4.227,19.02144 19.0215,19.4911 14.7944,0.46967 22.5439,-17.37761 22.5439,-17.37761 l -1.6438,-96.04649 z"
               id="path727" /><path
               style="opacity:1;fill:#ffddad;fill-opacity:1;stroke:#700b04;stroke-width:1;stroke-linecap:round;stroke-linejoin:round;stroke-dasharray:none;stroke-opacity:0.544148;paint-order:fill markers stroke"
               d="m -5585.139,557.02272 0.2348,-41.56536 c 0,0 -0.5871,-5.40115 1.5264,-7.51464 2.1135,-2.11349 6.3405,-1.52641 6.3405,-1.52641 l 12.4461,3.87474 0.4697,30.64564 c 0,0 -3.5225,15.61636 -21.0175,16.08603 z"
               id="path728" /></g><g
             id="g730"
             transform="translate(577.68798,9.3933004)"
             style="stroke:#700b04;stroke-width:1;stroke-dasharray:none;stroke-opacity:0.544148"><path
               style="opacity:1;fill:#60dbf9;fill-opacity:1;stroke:#700b04;stroke-width:1;stroke-linecap:round;stroke-linejoin:round;stroke-dasharray:none;stroke-opacity:0.544148;paint-order:fill markers stroke"
               d="m -5645.3736,327.12169 c 0,0 -5.6359,25.59674 -4.6966,40.39119 0.9393,14.79445 6.1056,33.81588 26.0664,45.32267 19.9608,11.5068 79.6082,13.62029 99.0993,54.95081 15.499,-33.11138 5.1663,-91.81951 -54.2463,-100.50831 -50.9586,-15.96861 -56.8295,-24.89225 -66.2228,-40.15636 z"
               id="path729" /><path
               style="opacity:1;fill:#98e4fb;fill-opacity:1;stroke:#700b04;stroke-width:1;stroke-linecap:round;stroke-linejoin:round;stroke-dasharray:none;stroke-opacity:0.544148;paint-order:fill markers stroke"
               d="m -5617.5738,352.72617 c 0,0 -10.6732,51.47315 44.059,68.32852 l 55.0377,16.94945 c 0,0 3.4138,-50.0006 -41.4174,-66.26428 -18.6105,-6.75143 -33.2982,-6.85165 -57.6793,-19.01369 z"
               id="path730" /></g><g
             id="g732"
             transform="translate(577.68798,-52.377918)"
             style="stroke:#700b04;stroke-width:1;stroke-dasharray:none;stroke-opacity:0.544148"><path
               style="opacity:1;fill:#fd98a0;fill-opacity:1;stroke:#700b04;stroke-width:1;stroke-linecap:round;stroke-linejoin:round;stroke-dasharray:none;stroke-opacity:0.544148;paint-order:fill markers stroke"
               d="m -5645.3736,327.12169 c 0,0 -5.6359,25.59674 -4.6966,40.39119 0.9393,14.79445 6.1056,33.81588 26.0664,45.32267 19.9608,11.5068 79.6082,13.62029 99.0993,54.95081 15.499,-33.11138 5.1663,-91.81951 -54.2463,-100.50831 -50.9586,-15.96861 -56.8295,-24.89225 -66.2228,-40.15636 z"
               id="path731" /><path
               style="opacity:1;fill:#fdb4bd;fill-opacity:1;stroke:#700b04;stroke-width:1;stroke-linecap:round;stroke-linejoin:round;stroke-dasharray:none;stroke-opacity:0.544148;paint-order:fill markers stroke"
               d="m -5617.5738,352.72617 c 0,0 -10.6732,51.47315 44.059,68.32852 l 55.0377,16.94945 c 0,0 3.4138,-50.0006 -41.4174,-66.26428 -18.6105,-6.75143 -33.2982,-6.85165 -57.6793,-19.01369 z"
               id="path732" /></g><g
             id="g734"
             transform="translate(577.68798,9.3933004)"
             style="stroke:#700b04;stroke-width:1;stroke-dasharray:none;stroke-opacity:0.544148"><path
               style="opacity:1;fill:#fcce93;fill-opacity:1;stroke:#700b04;stroke-width:1;stroke-linecap:round;stroke-linejoin:round;stroke-dasharray:none;stroke-opacity:0.544148;paint-order:fill markers stroke"
               d="m -5644.9039,390.0568 c 0,0 -5.636,20.43043 -4.9315,38.04287 0.7045,17.61244 4.9315,48.14066 98.8645,72.32841 17.3776,4.46182 56.125,-34.52038 -11.5068,-66.92727 -47.2013,-17.61243 -68.3362,-14.32478 -82.4262,-43.44401 z"
               id="path733" /><path
               style="opacity:1;fill:#fff0db;fill-opacity:1;stroke:#700b04;stroke-width:1;stroke-linecap:round;stroke-linejoin:round;stroke-dasharray:none;stroke-opacity:0.544148;paint-order:fill markers stroke"
               d="m -5616.8442,415.9292 c 0,0 -11.8089,43.7018 31.6966,62.79774 27.5646,12.12177 49.9173,17.21526 49.9173,17.21526 0,0 29.3163,-19.07023 -5.5815,-48.43297 -21.9937,-18.50537 -42.3147,-20.46033 -76.0324,-31.58003 z"
               id="path734" /></g><g
             id="g736"
             transform="translate(577.68798,-112.82072)"
             style="stroke:#700b04;stroke-width:1;stroke-dasharray:none;stroke-opacity:0.544148"><path
               style="opacity:1;fill:#fcce93;fill-opacity:1;stroke:#700b04;stroke-width:1;stroke-linecap:round;stroke-linejoin:round;stroke-dasharray:none;stroke-opacity:0.544148;paint-order:fill markers stroke"
               d="m -5645.3736,327.12169 c 0,0 -5.6359,25.59674 -4.6966,40.39119 0.9393,14.79445 6.1056,33.81588 26.0664,45.32267 19.9608,11.5068 79.6082,13.62029 99.0993,54.95081 15.499,-33.11138 5.1663,-91.81951 -54.2463,-100.50831 -50.9586,-15.96861 -56.8295,-24.89225 -66.2228,-40.15636 z"
               id="path735" /><path
               style="opacity:1;fill:#fff0db;fill-opacity:1;stroke:#700b04;stroke-width:1;stroke-linecap:round;stroke-linejoin:round;stroke-dasharray:none;stroke-opacity:0.544148;paint-order:fill markers stroke"
               d="m -5617.5738,352.72617 c 0,0 -10.6732,51.47315 44.059,68.32852 l 55.0377,16.94945 c 0,0 3.4138,-50.0006 -41.4174,-66.26428 -18.6105,-6.75143 -33.2982,-6.85165 -57.6793,-19.01369 z"
               id="path736" /></g><g
             id="g738"
             transform="translate(577.68798,-175.58825)"
             style="stroke:#700b04;stroke-width:1;stroke-dasharray:none;stroke-opacity:0.544148"><path
               style="opacity:1;fill:#60dbf9;fill-opacity:1;stroke:#700b04;stroke-width:1;stroke-linecap:round;stroke-linejoin:round;stroke-dasharray:none;stroke-opacity:0.544148;paint-order:fill markers stroke"
               d="m -5645.3736,327.12169 c 0,0 -5.6359,25.59674 -4.6966,40.39119 0.9393,14.79445 6.1056,33.81588 26.0664,45.32267 19.9608,11.5068 79.6082,13.62029 99.0993,54.95081 15.499,-33.11138 5.1663,-91.81951 -54.2463,-100.50831 -50.9586,-15.96861 -56.8295,-24.89225 -66.2228,-40.15636 z"
               id="path737" /><path
               style="opacity:1;fill:#98e4fb;fill-opacity:1;stroke:#700b04;stroke-width:1;stroke-linecap:round;stroke-linejoin:round;stroke-dasharray:none;stroke-opacity:0.544148;paint-order:fill markers stroke"
               d="m -5617.5738,352.72617 c 0,0 -10.6732,51.47315 44.059,68.32852 l 55.0377,16.94945 c 0,0 3.4138,-50.0006 -41.4174,-66.26428 -18.6105,-6.75143 -33.2982,-6.85165 -57.6793,-19.01369 z"
               id="path738" /></g><g
             id="g740"
             transform="translate(577.68798,-237.35947)"
             style="stroke:#700b04;stroke-width:1;stroke-dasharray:none;stroke-opacity:0.544148"><path
               style="opacity:1;fill:#fd98a0;fill-opacity:1;stroke:#700b04;stroke-width:1;stroke-linecap:round;stroke-linejoin:round;stroke-dasharray:none;stroke-opacity:0.544148;paint-order:fill markers stroke"
               d="m -5645.3736,327.12169 c 0,0 -5.6359,25.59674 -4.6966,40.39119 0.9393,14.79445 6.1056,33.81588 26.0664,45.32267 19.9608,11.5068 79.6082,13.62029 99.0993,54.95081 15.499,-33.11138 5.1663,-91.81951 -54.2463,-100.50831 -50.9586,-15.96861 -56.8295,-24.89225 -66.2228,-40.15636 z"
               id="path739" /><path
               style="opacity:1;fill:#fdb4bd;fill-opacity:1;stroke:#700b04;stroke-width:1;stroke-linecap:round;stroke-linejoin:round;stroke-dasharray:none;stroke-opacity:0.544148;paint-order:fill markers stroke"
               d="m -5617.5738,352.72617 c 0,0 -10.6732,51.47315 44.059,68.32852 l 55.0377,16.94945 c 0,0 3.4138,-50.0006 -41.4174,-66.26428 -18.6105,-6.75143 -33.2982,-6.85165 -57.6793,-19.01369 z"
               id="path740" /></g><g
             id="g742"
             transform="translate(577.68798,-298.13437)"
             style="opacity:1;stroke:#700b04;stroke-width:1;stroke-dasharray:none;stroke-opacity:0.544148"><path
               style="opacity:1;fill:#fcce93;fill-opacity:1;stroke:#700b04;stroke-width:1;stroke-linecap:round;stroke-linejoin:round;stroke-dasharray:none;stroke-opacity:0.544148;paint-order:fill markers stroke"
               d="m -5645.491,369.97862 c -2.9855,14.52049 1.5264,31.35014 21.4872,42.85693 19.9608,11.5068 79.6082,13.62029 99.0993,54.95081 15.499,-33.11138 5.1663,-91.81951 -54.2463,-100.50831 -53.5348,-20.27963 -63.757,-9.86297 -66.3402,2.70057 z"
               id="path741" /><path
               style="opacity:1;fill:#fff0db;fill-opacity:1;stroke:#700b04;stroke-width:1;stroke-linecap:round;stroke-linejoin:round;stroke-dasharray:none;stroke-opacity:0.544148;paint-order:fill markers stroke"
               d="m -5618.155,356.17174 c 0,0 -10.092,48.02758 44.6402,64.88295 l 55.0377,16.94945 c 0,0 3.4138,-50.0006 -41.4174,-66.26428 -18.6105,-6.75143 -38.3628,-12.20682 -58.2605,-15.56812 z"
               id="path742" /></g></g><g
           id="g759"
           transform="translate(-901.75684,-207.59194)"><g
             id="g744"
             transform="translate(577.68798,9.3933004)"><path
               style="opacity:1;fill:#f7be75;fill-opacity:1;stroke:none;stroke-width:9.525;stroke-linecap:round;stroke-linejoin:round;stroke-dasharray:none;stroke-opacity:1;paint-order:fill markers stroke"
               d="m -5606.1565,445.24244 0.4696,92.75884 c 0,0 4.227,19.02144 19.0215,19.4911 14.7944,0.46967 22.5439,-17.37761 22.5439,-17.37761 l -1.6438,-96.04649 z"
               id="path743" /><path
               style="opacity:1;fill:#ffddad;fill-opacity:1;stroke:none;stroke-width:9.525;stroke-linecap:round;stroke-linejoin:round;stroke-dasharray:none;stroke-opacity:1;paint-order:fill markers stroke"
               d="m -5585.139,557.02272 0.2348,-41.56536 c 0,0 -0.5871,-5.40115 1.5264,-7.51464 2.1135,-2.11349 6.3405,-1.52641 6.3405,-1.52641 l 12.4461,3.87474 0.4697,30.64564 c 0,0 -3.5225,15.61636 -21.0175,16.08603 z"
               id="path744" /></g><g
             id="g746"
             transform="translate(577.68798,9.3933004)"><path
               style="opacity:1;fill:#60dbf9;fill-opacity:1;stroke:none;stroke-width:9.525;stroke-linecap:round;stroke-linejoin:round;stroke-dasharray:none;stroke-opacity:1;paint-order:fill markers stroke"
               d="m -5645.3736,327.12169 c 0,0 -5.6359,25.59674 -4.6966,40.39119 0.9393,14.79445 6.1056,33.81588 26.0664,45.32267 19.9608,11.5068 79.6082,13.62029 99.0993,54.95081 15.499,-33.11138 5.1663,-91.81951 -54.2463,-100.50831 -50.9586,-15.96861 -56.8295,-24.89225 -66.2228,-40.15636 z"
               id="path745" /><path
               style="opacity:1;fill:#98e4fb;fill-opacity:1;stroke:none;stroke-width:9.525;stroke-linecap:round;stroke-linejoin:round;stroke-dasharray:none;stroke-opacity:1;paint-order:fill markers stroke"
               d="m -5617.5738,352.72617 c 0,0 -10.6732,51.47315 44.059,68.32852 l 55.0377,16.94945 c 0,0 3.4138,-50.0006 -41.4174,-66.26428 -18.6105,-6.75143 -33.0634,-8.96514 -57.6793,-19.01369 z"
               id="path746" /></g><g
             id="g748"
             transform="translate(577.68798,-52.377918)"><path
               style="opacity:1;fill:#fd98a0;fill-opacity:1;stroke:none;stroke-width:9.525;stroke-linecap:round;stroke-linejoin:round;stroke-dasharray:none;stroke-opacity:1;paint-order:fill markers stroke"
               d="m -5645.3736,327.12169 c 0,0 -5.6359,25.59674 -4.6966,40.39119 0.9393,14.79445 6.1056,33.81588 26.0664,45.32267 19.9608,11.5068 79.6082,13.62029 99.0993,54.95081 15.499,-33.11138 5.1663,-91.81951 -54.2463,-100.50831 -50.9586,-15.96861 -56.8295,-24.89225 -66.2228,-40.15636 z"
               id="path747" /><path
               style="opacity:1;fill:#fdb4bd;fill-opacity:1;stroke:none;stroke-width:9.525;stroke-linecap:round;stroke-linejoin:round;stroke-dasharray:none;stroke-opacity:1;paint-order:fill markers stroke"
               d="m -5617.5738,352.72617 c 0,0 -10.6732,51.47315 44.059,68.32852 l 55.0377,16.94945 c 0,0 3.4138,-50.0006 -41.4174,-66.26428 -18.6105,-6.75143 -33.2982,-6.85165 -57.6793,-19.01369 z"
               id="path748" /></g><g
             id="g750"
             transform="translate(577.68798,9.3933004)"><path
               style="opacity:1;fill:#fcce93;fill-opacity:1;stroke:none;stroke-width:9.525;stroke-linecap:round;stroke-linejoin:round;stroke-dasharray:none;stroke-opacity:1;paint-order:fill markers stroke"
               d="m -5644.9039,390.0568 c 0,0 -5.636,20.43043 -4.9315,38.04287 0.7045,17.61244 4.9315,48.14066 98.8645,72.32841 17.3776,4.46182 56.125,-34.52038 -11.5068,-66.92727 -47.2013,-17.61243 -68.3362,-14.32478 -82.4262,-43.44401 z"
               id="path749" /><path
               style="opacity:1;fill:#fff0db;fill-opacity:1;stroke:none;stroke-width:9.525;stroke-linecap:round;stroke-linejoin:round;stroke-dasharray:none;stroke-opacity:1;paint-order:fill markers stroke"
               d="m -5616.8442,415.9292 c 0,0 -11.8089,43.7018 31.6966,62.79774 27.5646,12.12177 49.9173,17.21526 49.9173,17.21526 0,0 29.3163,-19.07023 -5.5815,-48.43297 -21.9937,-18.50537 -42.3147,-20.46033 -76.0324,-31.58003 z"
               id="path750" /></g><g
             id="g752"
             transform="translate(577.68798,-112.82072)"><path
               style="opacity:1;fill:#fcce93;fill-opacity:1;stroke:none;stroke-width:9.525;stroke-linecap:round;stroke-linejoin:round;stroke-dasharray:none;stroke-opacity:1;paint-order:fill markers stroke"
               d="m -5645.3736,327.12169 c 0,0 -5.6359,25.59674 -4.6966,40.39119 0.9393,14.79445 6.1056,33.81588 26.0664,45.32267 19.9608,11.5068 79.6082,13.62029 99.0993,54.95081 15.499,-33.11138 5.1663,-91.81951 -54.2463,-100.50831 -50.9586,-15.96861 -56.8295,-24.89225 -66.2228,-40.15636 z"
               id="path751" /><path
               style="opacity:1;fill:#fff0db;fill-opacity:1;stroke:none;stroke-width:9.525;stroke-linecap:round;stroke-linejoin:round;stroke-dasharray:none;stroke-opacity:1;paint-order:fill markers stroke"
               d="m -5617.5738,352.72617 c 0,0 -10.6732,51.47315 44.059,68.32852 l 55.0377,16.94945 c 0,0 3.4138,-50.0006 -41.4174,-66.26428 -18.6105,-6.75143 -31.8892,-8.26065 -57.6793,-19.01369 z"
               id="path752" /></g><g
             id="g754"
             transform="translate(577.68798,-175.58825)"><path
               style="opacity:1;fill:#60dbf9;fill-opacity:1;stroke:none;stroke-width:9.525;stroke-linecap:round;stroke-linejoin:round;stroke-dasharray:none;stroke-opacity:1;paint-order:fill markers stroke"
               d="m -5645.3736,327.12169 c 0,0 -5.6359,25.59674 -4.6966,40.39119 0.9393,14.79445 4.2172,31.6435 26.0664,45.32267 20.9297,13.10352 76.7902,14.08996 99.0993,54.95081 15.499,-33.11138 5.1663,-91.81951 -54.2463,-100.50831 -50.9586,-15.96861 -56.8295,-24.89225 -66.2228,-40.15636 z"
               id="path753" /><path
               style="opacity:1;fill:#98e4fb;fill-opacity:1;stroke:none;stroke-width:9.525;stroke-linecap:round;stroke-linejoin:round;stroke-dasharray:none;stroke-opacity:1;paint-order:fill markers stroke"
               d="m -5617.5738,352.72617 c 0,0 -10.6732,51.47315 44.059,68.32852 l 55.0377,16.94945 c 0,0 3.4138,-50.0006 -41.4174,-66.26428 -18.6105,-6.75143 -32.5937,-8.73031 -57.6793,-19.01369 z"
               id="path754" /></g><g
             id="g756"
             transform="translate(577.68798,-237.35947)"><path
               style="opacity:1;fill:#fd98a0;fill-opacity:1;stroke:none;stroke-width:9.525;stroke-linecap:round;stroke-linejoin:round;stroke-dasharray:none;stroke-opacity:1;paint-order:fill markers stroke"
               d="m -5645.3736,327.12169 c 0,0 -5.6359,25.59674 -4.6966,40.39119 0.9393,14.79445 6.1056,33.81588 26.0664,45.32267 19.9608,11.5068 79.6082,13.62029 99.0993,54.95081 15.499,-33.11138 5.1663,-91.81951 -54.2463,-100.50831 -50.9586,-15.96861 -56.8295,-24.89225 -66.2228,-40.15636 z"
               id="path755" /><path
               style="opacity:1;fill:#fdb4bd;fill-opacity:1;stroke:none;stroke-width:9.525;stroke-linecap:round;stroke-linejoin:round;stroke-dasharray:none;stroke-opacity:1;paint-order:fill markers stroke"
               d="m -5617.5738,352.72617 c 0,0 -10.6732,51.47315 44.059,68.32852 l 55.0377,16.94945 c 0,0 3.4138,-50.0006 -41.4174,-66.26428 -18.6105,-6.75143 -33.2982,-6.85165 -57.6793,-19.01369 z"
               id="path756" /></g><g
             id="g758"
             transform="translate(577.68798,-298.13437)"
             style="opacity:1"><path
               style="opacity:1;fill:#fcce93;fill-opacity:1;stroke:none;stroke-width:9.525;stroke-linecap:round;stroke-linejoin:round;stroke-dasharray:none;stroke-opacity:1;paint-order:fill markers stroke"
               d="m -5645.491,369.97862 c -2.9855,14.52049 1.5264,31.35014 21.4872,42.85693 19.9608,11.5068 79.6082,13.62029 99.0993,54.95081 15.499,-33.11138 5.1663,-91.81951 -54.2463,-100.50831 -53.5348,-20.27963 -63.757,-9.86297 -66.3402,2.70057 z"
               id="path757" /><path
               style="opacity:1;fill:#fff0db;fill-opacity:1;stroke:none;stroke-width:9.525;stroke-linecap:round;stroke-linejoin:round;stroke-dasharray:none;stroke-opacity:1;paint-order:fill markers stroke"
               d="m -5618.155,356.17174 c 0,0 -10.092,48.02758 44.6402,64.88295 l 55.0377,16.94945 c 0,0 3.4138,-50.0006 -41.4174,-66.26428 -18.6105,-6.75143 -38.3628,-12.20682 -58.2605,-15.56812 z"
               id="path758" /></g></g></g><g
         id="g727"
         transform="matrix(0.42334996,0,0,0.42334996,-2931.0648,-159.83539)"><g
           id="g710"
           transform="translate(-901.75684,-207.59194)"
           style="stroke:#700b04;stroke-width:1;stroke-dasharray:none;stroke-opacity:0.544148"><g
             id="g695"
             transform="translate(577.68798,9.3933004)"
             style="stroke:#700b04;stroke-width:1;stroke-dasharray:none;stroke-opacity:0.544148"><path
               style="opacity:1;fill:#f7be75;fill-opacity:1;stroke:#700b04;stroke-width:1;stroke-linecap:round;stroke-linejoin:round;stroke-dasharray:none;stroke-opacity:0.544148;paint-order:fill markers stroke"
               d="m -5606.1565,445.24244 0.4696,92.75884 c 0,0 4.227,19.02144 19.0215,19.4911 14.7944,0.46967 22.5439,-17.37761 22.5439,-17.37761 l -1.6438,-96.04649 z"
               id="path694" /><path
               style="opacity:1;fill:#ffddad;fill-opacity:1;stroke:#700b04;stroke-width:1;stroke-linecap:round;stroke-linejoin:round;stroke-dasharray:none;stroke-opacity:0.544148;paint-order:fill markers stroke"
               d="m -5585.139,557.02272 0.2348,-41.56536 c 0,0 -0.5871,-5.40115 1.5264,-7.51464 2.1135,-2.11349 6.3405,-1.52641 6.3405,-1.52641 l 12.4461,3.87474 0.4697,30.64564 c 0,0 -3.5225,15.61636 -21.0175,16.08603 z"
               id="path695" /></g><g
             id="g697"
             transform="translate(577.68798,9.3933004)"
             style="stroke:#700b04;stroke-width:1;stroke-dasharray:none;stroke-opacity:0.544148"><path
               style="opacity:1;fill:#60dbf9;fill-opacity:1;stroke:#700b04;stroke-width:1;stroke-linecap:round;stroke-linejoin:round;stroke-dasharray:none;stroke-opacity:0.544148;paint-order:fill markers stroke"
               d="m -5645.3736,327.12169 c 0,0 -5.6359,25.59674 -4.6966,40.39119 0.9393,14.79445 6.1056,33.81588 26.0664,45.32267 19.9608,11.5068 79.6082,13.62029 99.0993,54.95081 15.499,-33.11138 5.1663,-91.81951 -54.2463,-100.50831 -50.9586,-15.96861 -56.8295,-24.89225 -66.2228,-40.15636 z"
               id="path696" /><path
               style="opacity:1;fill:#98e4fb;fill-opacity:1;stroke:#700b04;stroke-width:1;stroke-linecap:round;stroke-linejoin:round;stroke-dasharray:none;stroke-opacity:0.544148;paint-order:fill markers stroke"
               d="m -5617.5738,352.72617 c 0,0 -10.6732,51.47315 44.059,68.32852 l 55.0377,16.94945 c 0,0 3.4138,-50.0006 -41.4174,-66.26428 -18.6105,-6.75143 -33.2982,-6.85165 -57.6793,-19.01369 z"
               id="path697" /></g><g
             id="g699"
             transform="translate(577.68798,-52.377918)"
             style="stroke:#700b04;stroke-width:1;stroke-dasharray:none;stroke-opacity:0.544148"><path
               style="opacity:1;fill:#fd98a0;fill-opacity:1;stroke:#700b04;stroke-width:1;stroke-linecap:round;stroke-linejoin:round;stroke-dasharray:none;stroke-opacity:0.544148;paint-order:fill markers stroke"
               d="m -5645.3736,327.12169 c 0,0 -5.6359,25.59674 -4.6966,40.39119 0.9393,14.79445 6.1056,33.81588 26.0664,45.32267 19.9608,11.5068 79.6082,13.62029 99.0993,54.95081 15.499,-33.11138 5.1663,-91.81951 -54.2463,-100.50831 -50.9586,-15.96861 -56.8295,-24.89225 -66.2228,-40.15636 z"
               id="path698" /><path
               style="opacity:1;fill:#fdb4bd;fill-opacity:1;stroke:#700b04;stroke-width:1;stroke-linecap:round;stroke-linejoin:round;stroke-dasharray:none;stroke-opacity:0.544148;paint-order:fill markers stroke"
               d="m -5617.5738,352.72617 c 0,0 -10.6732,51.47315 44.059,68.32852 l 55.0377,16.94945 c 0,0 3.4138,-50.0006 -41.4174,-66.26428 -18.6105,-6.75143 -33.2982,-6.85165 -57.6793,-19.01369 z"
               id="path699" /></g><g
             id="g701"
             transform="translate(577.68798,9.3933004)"
             style="stroke:#700b04;stroke-width:1;stroke-dasharray:none;stroke-opacity:0.544148"><path
               style="opacity:1;fill:#fcce93;fill-opacity:1;stroke:#700b04;stroke-width:1;stroke-linecap:round;stroke-linejoin:round;stroke-dasharray:none;stroke-opacity:0.544148;paint-order:fill markers stroke"
               d="m -5644.9039,390.0568 c 0,0 -5.636,20.43043 -4.9315,38.04287 0.7045,17.61244 4.9315,48.14066 98.8645,72.32841 17.3776,4.46182 56.125,-34.52038 -11.5068,-66.92727 -47.2013,-17.61243 -68.3362,-14.32478 -82.4262,-43.44401 z"
               id="path700" /><path
               style="opacity:1;fill:#fff0db;fill-opacity:1;stroke:#700b04;stroke-width:1;stroke-linecap:round;stroke-linejoin:round;stroke-dasharray:none;stroke-opacity:0.544148;paint-order:fill markers stroke"
               d="m -5616.8442,415.9292 c 0,0 -11.8089,43.7018 31.6966,62.79774 27.5646,12.12177 49.9173,17.21526 49.9173,17.21526 0,0 29.3163,-19.07023 -5.5815,-48.43297 -21.9937,-18.50537 -42.3147,-20.46033 -76.0324,-31.58003 z"
               id="path701" /></g><g
             id="g703"
             transform="translate(577.68798,-112.82072)"
             style="stroke:#700b04;stroke-width:1;stroke-dasharray:none;stroke-opacity:0.544148"><path
               style="opacity:1;fill:#fcce93;fill-opacity:1;stroke:#700b04;stroke-width:1;stroke-linecap:round;stroke-linejoin:round;stroke-dasharray:none;stroke-opacity:0.544148;paint-order:fill markers stroke"
               d="m -5645.3736,327.12169 c 0,0 -5.6359,25.59674 -4.6966,40.39119 0.9393,14.79445 6.1056,33.81588 26.0664,45.32267 19.9608,11.5068 79.6082,13.62029 99.0993,54.95081 15.499,-33.11138 5.1663,-91.81951 -54.2463,-100.50831 -50.9586,-15.96861 -56.8295,-24.89225 -66.2228,-40.15636 z"
               id="path702" /><path
               style="opacity:1;fill:#fff0db;fill-opacity:1;stroke:#700b04;stroke-width:1;stroke-linecap:round;stroke-linejoin:round;stroke-dasharray:none;stroke-opacity:0.544148;paint-order:fill markers stroke"
               d="m -5617.5738,352.72617 c 0,0 -10.6732,51.47315 44.059,68.32852 l 55.0377,16.94945 c 0,0 3.4138,-50.0006 -41.4174,-66.26428 -18.6105,-6.75143 -33.2982,-6.85165 -57.6793,-19.01369 z"
               id="path703" /></g><g
             id="g705"
             transform="translate(577.68798,-175.58825)"
             style="stroke:#700b04;stroke-width:1;stroke-dasharray:none;stroke-opacity:0.544148"><path
               style="opacity:1;fill:#60dbf9;fill-opacity:1;stroke:#700b04;stroke-width:1;stroke-linecap:round;stroke-linejoin:round;stroke-dasharray:none;stroke-opacity:0.544148;paint-order:fill markers stroke"
               d="m -5645.3736,327.12169 c 0,0 -5.6359,25.59674 -4.6966,40.39119 0.9393,14.79445 6.1056,33.81588 26.0664,45.32267 19.9608,11.5068 79.6082,13.62029 99.0993,54.95081 15.499,-33.11138 5.1663,-91.81951 -54.2463,-100.50831 -50.9586,-15.96861 -56.8295,-24.89225 -66.2228,-40.15636 z"
               id="path704" /><path
               style="opacity:1;fill:#98e4fb;fill-opacity:1;stroke:#700b04;stroke-width:1;stroke-linecap:round;stroke-linejoin:round;stroke-dasharray:none;stroke-opacity:0.544148;paint-order:fill markers stroke"
               d="m -5617.5738,352.72617 c 0,0 -10.6732,51.47315 44.059,68.32852 l 55.0377,16.94945 c 0,0 3.4138,-50.0006 -41.4174,-66.26428 -18.6105,-6.75143 -33.2982,-6.85165 -57.6793,-19.01369 z"
               id="path705" /></g><g
             id="g707"
             transform="translate(577.68798,-237.35947)"
             style="stroke:#700b04;stroke-width:1;stroke-dasharray:none;stroke-opacity:0.544148"><path
               style="opacity:1;fill:#fd98a0;fill-opacity:1;stroke:#700b04;stroke-width:1;stroke-linecap:round;stroke-linejoin:round;stroke-dasharray:none;stroke-opacity:0.544148;paint-order:fill markers stroke"
               d="m -5645.3736,327.12169 c 0,0 -5.6359,25.59674 -4.6966,40.39119 0.9393,14.79445 6.1056,33.81588 26.0664,45.32267 19.9608,11.5068 79.6082,13.62029 99.0993,54.95081 15.499,-33.11138 5.1663,-91.81951 -54.2463,-100.50831 -50.9586,-15.96861 -56.8295,-24.89225 -66.2228,-40.15636 z"
               id="path706" /><path
               style="opacity:1;fill:#fdb4bd;fill-opacity:1;stroke:#700b04;stroke-width:1;stroke-linecap:round;stroke-linejoin:round;stroke-dasharray:none;stroke-opacity:0.544148;paint-order:fill markers stroke"
               d="m -5617.5738,352.72617 c 0,0 -10.6732,51.47315 44.059,68.32852 l 55.0377,16.94945 c 0,0 3.4138,-50.0006 -41.4174,-66.26428 -18.6105,-6.75143 -33.2982,-6.85165 -57.6793,-19.01369 z"
               id="path707" /></g><g
             id="g709"
             transform="translate(577.68798,-298.13437)"
             style="opacity:1;stroke:#700b04;stroke-width:1;stroke-dasharray:none;stroke-opacity:0.544148" /></g><g
           id="g726"
           transform="translate(-901.75684,-207.59194)"><g
             id="g711"
             transform="translate(577.68798,9.3933004)"><path
               style="opacity:1;fill:#f7be75;fill-opacity:1;stroke:none;stroke-width:9.525;stroke-linecap:round;stroke-linejoin:round;stroke-dasharray:none;stroke-opacity:1;paint-order:fill markers stroke"
               d="m -5606.1565,445.24244 0.4696,92.75884 c 0,0 4.227,19.02144 19.0215,19.4911 14.7944,0.46967 22.5439,-17.37761 22.5439,-17.37761 l -1.6438,-96.04649 z"
               id="path710" /><path
               style="opacity:1;fill:#ffddad;fill-opacity:1;stroke:none;stroke-width:9.525;stroke-linecap:round;stroke-linejoin:round;stroke-dasharray:none;stroke-opacity:1;paint-order:fill markers stroke"
               d="m -5585.139,557.02272 0.2348,-41.56536 c 0,0 -0.5871,-5.40115 1.5264,-7.51464 2.1135,-2.11349 6.3405,-1.52641 6.3405,-1.52641 l 12.4461,3.87474 0.4697,30.64564 c 0,0 -3.5225,15.61636 -21.0175,16.08603 z"
               id="path711" /></g><g
             id="g713"
             transform="translate(577.68798,9.3933004)"><path
               style="opacity:1;fill:#60dbf9;fill-opacity:1;stroke:none;stroke-width:9.525;stroke-linecap:round;stroke-linejoin:round;stroke-dasharray:none;stroke-opacity:1;paint-order:fill markers stroke"
               d="m -5645.3736,327.12169 c 0,0 -5.6359,25.59674 -4.6966,40.39119 0.9393,14.79445 6.1056,33.81588 26.0664,45.32267 19.9608,11.5068 79.6082,13.62029 99.0993,54.95081 15.499,-33.11138 5.1663,-91.81951 -54.2463,-100.50831 -50.9586,-15.96861 -56.8295,-24.89225 -66.2228,-40.15636 z"
               id="path712" /><path
               style="opacity:1;fill:#98e4fb;fill-opacity:1;stroke:none;stroke-width:9.525;stroke-linecap:round;stroke-linejoin:round;stroke-dasharray:none;stroke-opacity:1;paint-order:fill markers stroke"
               d="m -5617.5738,352.72617 c 0,0 -10.6732,51.47315 44.059,68.32852 l 55.0377,16.94945 c 0,0 3.4138,-50.0006 -41.4174,-66.26428 -18.6105,-6.75143 -33.0634,-8.96514 -57.6793,-19.01369 z"
               id="path713" /></g><g
             id="g715"
             transform="translate(577.68798,-52.377918)"><path
               style="opacity:1;fill:#fd98a0;fill-opacity:1;stroke:none;stroke-width:9.525;stroke-linecap:round;stroke-linejoin:round;stroke-dasharray:none;stroke-opacity:1;paint-order:fill markers stroke"
               d="m -5645.3736,327.12169 c 0,0 -5.6359,25.59674 -4.6966,40.39119 0.9393,14.79445 6.1056,33.81588 26.0664,45.32267 19.9608,11.5068 79.6082,13.62029 99.0993,54.95081 15.499,-33.11138 5.1663,-91.81951 -54.2463,-100.50831 -50.9586,-15.96861 -56.8295,-24.89225 -66.2228,-40.15636 z"
               id="path714" /><path
               style="opacity:1;fill:#fdb4bd;fill-opacity:1;stroke:none;stroke-width:9.525;stroke-linecap:round;stroke-linejoin:round;stroke-dasharray:none;stroke-opacity:1;paint-order:fill markers stroke"
               d="m -5617.5738,352.72617 c 0,0 -10.6732,51.47315 44.059,68.32852 l 55.0377,16.94945 c 0,0 3.4138,-50.0006 -41.4174,-66.26428 -18.6105,-6.75143 -33.2982,-6.85165 -57.6793,-19.01369 z"
               id="path715" /></g><g
             id="g717"
             transform="translate(577.68798,9.3933004)"><path
               style="opacity:1;fill:#fcce93;fill-opacity:1;stroke:none;stroke-width:9.525;stroke-linecap:round;stroke-linejoin:round;stroke-dasharray:none;stroke-opacity:1;paint-order:fill markers stroke"
               d="m -5644.9039,390.0568 c 0,0 -5.636,20.43043 -4.9315,38.04287 0.7045,17.61244 4.9315,48.14066 98.8645,72.32841 17.3776,4.46182 56.125,-34.52038 -11.5068,-66.92727 -47.2013,-17.61243 -68.3362,-14.32478 -82.4262,-43.44401 z"
               id="path716" /><path
               style="opacity:1;fill:#fff0db;fill-opacity:1;stroke:none;stroke-width:9.525;stroke-linecap:round;stroke-linejoin:round;stroke-dasharray:none;stroke-opacity:1;paint-order:fill markers stroke"
               d="m -5616.8442,415.9292 c 0,0 -11.8089,43.7018 31.6966,62.79774 27.5646,12.12177 49.9173,17.21526 49.9173,17.21526 0,0 29.3163,-19.07023 -5.5815,-48.43297 -21.9937,-18.50537 -42.3147,-20.46033 -76.0324,-31.58003 z"
               id="path717" /></g><g
             id="g719"
             transform="translate(577.68798,-112.82072)"><path
               style="opacity:1;fill:#fcce93;fill-opacity:1;stroke:none;stroke-width:9.525;stroke-linecap:round;stroke-linejoin:round;stroke-dasharray:none;stroke-opacity:1;paint-order:fill markers stroke"
               d="m -5645.3736,327.12169 c 0,0 -5.6359,25.59674 -4.6966,40.39119 0.9393,14.79445 6.1056,33.81588 26.0664,45.32267 19.9608,11.5068 79.6082,13.62029 99.0993,54.95081 15.499,-33.11138 5.1663,-91.81951 -54.2463,-100.50831 -50.9586,-15.96861 -56.8295,-24.89225 -66.2228,-40.15636 z"
               id="path718" /><path
               style="opacity:1;fill:#fff0db;fill-opacity:1;stroke:none;stroke-width:9.525;stroke-linecap:round;stroke-linejoin:round;stroke-dasharray:none;stroke-opacity:1;paint-order:fill markers stroke"
               d="m -5617.5738,352.72617 c 0,0 -10.6732,51.47315 44.059,68.32852 l 55.0377,16.94945 c 0,0 3.4138,-50.0006 -41.4174,-66.26428 -18.6105,-6.75143 -31.8892,-8.26065 -57.6793,-19.01369 z"
               id="path719" /></g><g
             id="g721"
             transform="translate(577.68798,-175.58825)"><path
               style="opacity:1;fill:#60dbf9;fill-opacity:1;stroke:none;stroke-width:9.525;stroke-linecap:round;stroke-linejoin:round;stroke-dasharray:none;stroke-opacity:1;paint-order:fill markers stroke"
               d="m -5645.3736,327.12169 c 0,0 -5.6359,25.59674 -4.6966,40.39119 0.9393,14.79445 4.2172,31.6435 26.0664,45.32267 20.9297,13.10352 76.7902,14.08996 99.0993,54.95081 15.499,-33.11138 5.1663,-91.81951 -54.2463,-100.50831 -50.9586,-15.96861 -56.8295,-24.89225 -66.2228,-40.15636 z"
               id="path720" /><path
               style="opacity:1;fill:#98e4fb;fill-opacity:1;stroke:none;stroke-width:9.525;stroke-linecap:round;stroke-linejoin:round;stroke-dasharray:none;stroke-opacity:1;paint-order:fill markers stroke"
               d="m -5617.5738,352.72617 c 0,0 -10.6732,51.47315 44.059,68.32852 l 55.0377,16.94945 c 0,0 3.4138,-50.0006 -41.4174,-66.26428 -18.6105,-6.75143 -32.5937,-8.73031 -57.6793,-19.01369 z"
               id="path721" /></g><g
             id="g723"
             transform="translate(577.68798,-237.35947)"><path
               style="opacity:1;fill:#fd98a0;fill-opacity:1;stroke:none;stroke-width:9.525;stroke-linecap:round;stroke-linejoin:round;stroke-dasharray:none;stroke-opacity:1;paint-order:fill markers stroke"
               d="m -5645.3736,327.12169 c 0,0 -5.6359,25.59674 -4.6966,40.39119 0.9393,14.79445 6.1056,33.81588 26.0664,45.32267 19.9608,11.5068 79.6082,13.62029 99.0993,54.95081 15.499,-33.11138 5.1663,-91.81951 -54.2463,-100.50831 -50.9586,-15.96861 -56.8295,-24.89225 -66.2228,-40.15636 z"
               id="path722" /><path
               style="opacity:1;fill:#fdb4bd;fill-opacity:1;stroke:none;stroke-width:9.525;stroke-linecap:round;stroke-linejoin:round;stroke-dasharray:none;stroke-opacity:1;paint-order:fill markers stroke"
               d="m -5617.5738,352.72617 c 0,0 -10.6732,51.47315 44.059,68.32852 l 55.0377,16.94945 c 0,0 3.4138,-50.0006 -41.4174,-66.26428 -18.6105,-6.75143 -33.2982,-6.85165 -57.6793,-19.01369 z"
               id="path723" /></g><g
             id="g725"
             transform="translate(577.68798,-298.13437)"
             style="opacity:1" /></g></g><g
         id="g791"
         transform="matrix(0.42334996,0,0,0.42334996,-2931.0648,-80.794797)"><g
           id="g775"
           transform="translate(-901.75684,-207.59194)"
           style="stroke:#700b04;stroke-width:1;stroke-dasharray:none;stroke-opacity:0.544148"><g
             id="g761"
             transform="translate(577.68798,9.3933004)"
             style="stroke:#700b04;stroke-width:1;stroke-dasharray:none;stroke-opacity:0.544148"><path
               style="opacity:1;fill:#f7be75;fill-opacity:1;stroke:#700b04;stroke-width:1;stroke-linecap:round;stroke-linejoin:round;stroke-dasharray:none;stroke-opacity:0.544148;paint-order:fill markers stroke"
               d="m -5606.1565,445.24244 0.4696,92.75884 c 0,0 4.227,19.02144 19.0215,19.4911 14.7944,0.46967 22.5439,-17.37761 22.5439,-17.37761 l -1.6438,-96.04649 z"
               id="path760" /><path
               style="opacity:1;fill:#ffddad;fill-opacity:1;stroke:#700b04;stroke-width:1;stroke-linecap:round;stroke-linejoin:round;stroke-dasharray:none;stroke-opacity:0.544148;paint-order:fill markers stroke"
               d="m -5585.139,557.02272 0.2348,-41.56536 c 0,0 -0.5871,-5.40115 1.5264,-7.51464 2.1135,-2.11349 6.3405,-1.52641 6.3405,-1.52641 l 12.4461,3.87474 0.4697,30.64564 c 0,0 -3.5225,15.61636 -21.0175,16.08603 z"
               id="path761" /></g><g
             id="g763"
             transform="translate(577.68798,9.3933004)"
             style="stroke:#700b04;stroke-width:1;stroke-dasharray:none;stroke-opacity:0.544148"><path
               style="opacity:1;fill:#60dbf9;fill-opacity:1;stroke:#700b04;stroke-width:1;stroke-linecap:round;stroke-linejoin:round;stroke-dasharray:none;stroke-opacity:0.544148;paint-order:fill markers stroke"
               d="m -5645.3736,327.12169 c 0,0 -5.6359,25.59674 -4.6966,40.39119 0.9393,14.79445 6.1056,33.81588 26.0664,45.32267 19.9608,11.5068 79.6082,13.62029 99.0993,54.95081 15.499,-33.11138 5.1663,-91.81951 -54.2463,-100.50831 -50.9586,-15.96861 -56.8295,-24.89225 -66.2228,-40.15636 z"
               id="path762" /><path
               style="opacity:1;fill:#98e4fb;fill-opacity:1;stroke:#700b04;stroke-width:1;stroke-linecap:round;stroke-linejoin:round;stroke-dasharray:none;stroke-opacity:0.544148;paint-order:fill markers stroke"
               d="m -5617.5738,352.72617 c 0,0 -10.6732,51.47315 44.059,68.32852 l 55.0377,16.94945 c 0,0 3.4138,-50.0006 -41.4174,-66.26428 -18.6105,-6.75143 -33.2982,-6.85165 -57.6793,-19.01369 z"
               id="path763" /></g><g
             id="g765"
             transform="translate(577.68798,-52.377918)"
             style="stroke:#700b04;stroke-width:1;stroke-dasharray:none;stroke-opacity:0.544148"><path
               style="opacity:1;fill:#fd98a0;fill-opacity:1;stroke:#700b04;stroke-width:1;stroke-linecap:round;stroke-linejoin:round;stroke-dasharray:none;stroke-opacity:0.544148;paint-order:fill markers stroke"
               d="m -5645.3736,327.12169 c 0,0 -5.6359,25.59674 -4.6966,40.39119 0.9393,14.79445 6.1056,33.81588 26.0664,45.32267 19.9608,11.5068 79.6082,13.62029 99.0993,54.95081 15.499,-33.11138 5.1663,-91.81951 -54.2463,-100.50831 -50.9586,-15.96861 -56.8295,-24.89225 -66.2228,-40.15636 z"
               id="path764" /><path
               style="opacity:1;fill:#fdb4bd;fill-opacity:1;stroke:#700b04;stroke-width:1;stroke-linecap:round;stroke-linejoin:round;stroke-dasharray:none;stroke-opacity:0.544148;paint-order:fill markers stroke"
               d="m -5617.5738,352.72617 c 0,0 -10.6732,51.47315 44.059,68.32852 l 55.0377,16.94945 c 0,0 3.4138,-50.0006 -41.4174,-66.26428 -18.6105,-6.75143 -33.2982,-6.85165 -57.6793,-19.01369 z"
               id="path765" /></g><g
             id="g767"
             transform="translate(577.68798,9.3933004)"
             style="stroke:#700b04;stroke-width:1;stroke-dasharray:none;stroke-opacity:0.544148"><path
               style="opacity:1;fill:#fcce93;fill-opacity:1;stroke:#700b04;stroke-width:1;stroke-linecap:round;stroke-linejoin:round;stroke-dasharray:none;stroke-opacity:0.544148;paint-order:fill markers stroke"
               d="m -5644.9039,390.0568 c 0,0 -5.636,20.43043 -4.9315,38.04287 0.7045,17.61244 4.9315,48.14066 98.8645,72.32841 17.3776,4.46182 56.125,-34.52038 -11.5068,-66.92727 -47.2013,-17.61243 -68.3362,-14.32478 -82.4262,-43.44401 z"
               id="path766" /><path
               style="opacity:1;fill:#fff0db;fill-opacity:1;stroke:#700b04;stroke-width:1;stroke-linecap:round;stroke-linejoin:round;stroke-dasharray:none;stroke-opacity:0.544148;paint-order:fill markers stroke"
               d="m -5616.8442,415.9292 c 0,0 -11.8089,43.7018 31.6966,62.79774 27.5646,12.12177 49.9173,17.21526 49.9173,17.21526 0,0 29.3163,-19.07023 -5.5815,-48.43297 -21.9937,-18.50537 -42.3147,-20.46033 -76.0324,-31.58003 z"
               id="path767" /></g><g
             id="g769"
             transform="translate(577.68798,-112.82072)"
             style="stroke:#700b04;stroke-width:1;stroke-dasharray:none;stroke-opacity:0.544148"><path
               style="opacity:1;fill:#fcce93;fill-opacity:1;stroke:#700b04;stroke-width:1;stroke-linecap:round;stroke-linejoin:round;stroke-dasharray:none;stroke-opacity:0.544148;paint-order:fill markers stroke"
               d="m -5645.3736,327.12169 c 0,0 -5.6359,25.59674 -4.6966,40.39119 0.9393,14.79445 6.1056,33.81588 26.0664,45.32267 19.9608,11.5068 79.6082,13.62029 99.0993,54.95081 15.499,-33.11138 5.1663,-91.81951 -54.2463,-100.50831 -50.9586,-15.96861 -56.8295,-24.89225 -66.2228,-40.15636 z"
               id="path768" /><path
               style="opacity:1;fill:#fff0db;fill-opacity:1;stroke:#700b04;stroke-width:1;stroke-linecap:round;stroke-linejoin:round;stroke-dasharray:none;stroke-opacity:0.544148;paint-order:fill markers stroke"
               d="m -5617.5738,352.72617 c 0,0 -10.6732,51.47315 44.059,68.32852 l 55.0377,16.94945 c 0,0 3.4138,-50.0006 -41.4174,-66.26428 -18.6105,-6.75143 -33.2982,-6.85165 -57.6793,-19.01369 z"
               id="path769" /></g><g
             id="g771"
             transform="translate(577.68798,-175.58825)"
             style="stroke:#700b04;stroke-width:1;stroke-dasharray:none;stroke-opacity:0.544148"><path
               style="opacity:1;fill:#60dbf9;fill-opacity:1;stroke:#700b04;stroke-width:1;stroke-linecap:round;stroke-linejoin:round;stroke-dasharray:none;stroke-opacity:0.544148;paint-order:fill markers stroke"
               d="m -5645.3736,327.12169 c 0,0 -5.6359,25.59674 -4.6966,40.39119 0.9393,14.79445 6.1056,33.81588 26.0664,45.32267 19.9608,11.5068 79.6082,13.62029 99.0993,54.95081 15.499,-33.11138 5.1663,-91.81951 -54.2463,-100.50831 -50.9586,-15.96861 -56.8295,-24.89225 -66.2228,-40.15636 z"
               id="path770" /><path
               style="opacity:1;fill:#98e4fb;fill-opacity:1;stroke:#700b04;stroke-width:1;stroke-linecap:round;stroke-linejoin:round;stroke-dasharray:none;stroke-opacity:0.544148;paint-order:fill markers stroke"
               d="m -5617.5738,352.72617 c 0,0 -10.6732,51.47315 44.059,68.32852 l 55.0377,16.94945 c 0,0 3.4138,-50.0006 -41.4174,-66.26428 -18.6105,-6.75143 -33.2982,-6.85165 -57.6793,-19.01369 z"
               id="path771" /></g><g
             id="g773"
             transform="translate(577.68798,-237.35947)"
             style="stroke:#700b04;stroke-width:1;stroke-dasharray:none;stroke-opacity:0.544148"><path
               style="opacity:1;fill:#fd98a0;fill-opacity:1;stroke:#700b04;stroke-width:1;stroke-linecap:round;stroke-linejoin:round;stroke-dasharray:none;stroke-opacity:0.544148;paint-order:fill markers stroke"
               d="m -5645.3736,327.12169 c 0,0 -5.6359,25.59674 -4.6966,40.39119 0.9393,14.79445 6.1056,33.81588 26.0664,45.32267 19.9608,11.5068 79.6082,13.62029 99.0993,54.95081 15.499,-33.11138 5.1663,-91.81951 -54.2463,-100.50831 -50.9586,-15.96861 -56.8295,-24.89225 -66.2228,-40.15636 z"
               id="path772" /><path
               style="opacity:1;fill:#fdb4bd;fill-opacity:1;stroke:#700b04;stroke-width:1;stroke-linecap:round;stroke-linejoin:round;stroke-dasharray:none;stroke-opacity:0.544148;paint-order:fill markers stroke"
               d="m -5617.5738,352.72617 c 0,0 -10.6732,51.47315 44.059,68.32852 l 55.0377,16.94945 c 0,0 3.4138,-50.0006 -41.4174,-66.26428 -18.6105,-6.75143 -33.2982,-6.85165 -57.6793,-19.01369 z"
               id="path773" /></g><g
             id="g774"
             transform="translate(577.68798,-298.13437)"
             style="opacity:1;stroke:#700b04;stroke-width:1;stroke-dasharray:none;stroke-opacity:0.544148" /></g><g
           id="g790"
           transform="translate(-901.75684,-207.59194)"><g
             id="g776"
             transform="translate(577.68798,9.3933004)"><path
               style="opacity:1;fill:#f7be75;fill-opacity:1;stroke:none;stroke-width:9.525;stroke-linecap:round;stroke-linejoin:round;stroke-dasharray:none;stroke-opacity:1;paint-order:fill markers stroke"
               d="m -5606.1565,445.24244 0.4696,92.75884 c 0,0 4.227,19.02144 19.0215,19.4911 14.7944,0.46967 22.5439,-17.37761 22.5439,-17.37761 l -1.6438,-96.04649 z"
               id="path775" /><path
               style="opacity:1;fill:#ffddad;fill-opacity:1;stroke:none;stroke-width:9.525;stroke-linecap:round;stroke-linejoin:round;stroke-dasharray:none;stroke-opacity:1;paint-order:fill markers stroke"
               d="m -5585.139,557.02272 0.2348,-41.56536 c 0,0 -0.5871,-5.40115 1.5264,-7.51464 2.1135,-2.11349 6.3405,-1.52641 6.3405,-1.52641 l 12.4461,3.87474 0.4697,30.64564 c 0,0 -3.5225,15.61636 -21.0175,16.08603 z"
               id="path776" /></g><g
             id="g778"
             transform="translate(577.68798,9.3933004)"><path
               style="opacity:1;fill:#60dbf9;fill-opacity:1;stroke:none;stroke-width:9.525;stroke-linecap:round;stroke-linejoin:round;stroke-dasharray:none;stroke-opacity:1;paint-order:fill markers stroke"
               d="m -5645.3736,327.12169 c 0,0 -5.6359,25.59674 -4.6966,40.39119 0.9393,14.79445 6.1056,33.81588 26.0664,45.32267 19.9608,11.5068 79.6082,13.62029 99.0993,54.95081 15.499,-33.11138 5.1663,-91.81951 -54.2463,-100.50831 -50.9586,-15.96861 -56.8295,-24.89225 -66.2228,-40.15636 z"
               id="path777" /><path
               style="opacity:1;fill:#98e4fb;fill-opacity:1;stroke:none;stroke-width:9.525;stroke-linecap:round;stroke-linejoin:round;stroke-dasharray:none;stroke-opacity:1;paint-order:fill markers stroke"
               d="m -5617.5738,352.72617 c 0,0 -10.6732,51.47315 44.059,68.32852 l 55.0377,16.94945 c 0,0 3.4138,-50.0006 -41.4174,-66.26428 -18.6105,-6.75143 -33.0634,-8.96514 -57.6793,-19.01369 z"
               id="path778" /></g><g
             id="g780"
             transform="translate(577.68798,-52.377918)"><path
               style="opacity:1;fill:#fd98a0;fill-opacity:1;stroke:none;stroke-width:9.525;stroke-linecap:round;stroke-linejoin:round;stroke-dasharray:none;stroke-opacity:1;paint-order:fill markers stroke"
               d="m -5645.3736,327.12169 c 0,0 -5.6359,25.59674 -4.6966,40.39119 0.9393,14.79445 6.1056,33.81588 26.0664,45.32267 19.9608,11.5068 79.6082,13.62029 99.0993,54.95081 15.499,-33.11138 5.1663,-91.81951 -54.2463,-100.50831 -50.9586,-15.96861 -56.8295,-24.89225 -66.2228,-40.15636 z"
               id="path779" /><path
               style="opacity:1;fill:#fdb4bd;fill-opacity:1;stroke:none;stroke-width:9.525;stroke-linecap:round;stroke-linejoin:round;stroke-dasharray:none;stroke-opacity:1;paint-order:fill markers stroke"
               d="m -5617.5738,352.72617 c 0,0 -10.6732,51.47315 44.059,68.32852 l 55.0377,16.94945 c 0,0 3.4138,-50.0006 -41.4174,-66.26428 -18.6105,-6.75143 -33.2982,-6.85165 -57.6793,-19.01369 z"
               id="path780" /></g><g
             id="g782"
             transform="translate(577.68798,9.3933004)"><path
               style="opacity:1;fill:#fcce93;fill-opacity:1;stroke:none;stroke-width:9.525;stroke-linecap:round;stroke-linejoin:round;stroke-dasharray:none;stroke-opacity:1;paint-order:fill markers stroke"
               d="m -5644.9039,390.0568 c 0,0 -5.636,20.43043 -4.9315,38.04287 0.7045,17.61244 4.9315,48.14066 98.8645,72.32841 17.3776,4.46182 56.125,-34.52038 -11.5068,-66.92727 -47.2013,-17.61243 -68.3362,-14.32478 -82.4262,-43.44401 z"
               id="path781" /><path
               style="opacity:1;fill:#fff0db;fill-opacity:1;stroke:none;stroke-width:9.525;stroke-linecap:round;stroke-linejoin:round;stroke-dasharray:none;stroke-opacity:1;paint-order:fill markers stroke"
               d="m -5616.8442,415.9292 c 0,0 -11.8089,43.7018 31.6966,62.79774 27.5646,12.12177 49.9173,17.21526 49.9173,17.21526 0,0 29.3163,-19.07023 -5.5815,-48.43297 -21.9937,-18.50537 -42.3147,-20.46033 -76.0324,-31.58003 z"
               id="path782" /></g><g
             id="g784"
             transform="translate(577.68798,-112.82072)"><path
               style="opacity:1;fill:#fcce93;fill-opacity:1;stroke:none;stroke-width:9.525;stroke-linecap:round;stroke-linejoin:round;stroke-dasharray:none;stroke-opacity:1;paint-order:fill markers stroke"
               d="m -5645.3736,327.12169 c 0,0 -5.6359,25.59674 -4.6966,40.39119 0.9393,14.79445 6.1056,33.81588 26.0664,45.32267 19.9608,11.5068 79.6082,13.62029 99.0993,54.95081 15.499,-33.11138 5.1663,-91.81951 -54.2463,-100.50831 -50.9586,-15.96861 -56.8295,-24.89225 -66.2228,-40.15636 z"
               id="path783" /><path
               style="opacity:1;fill:#fff0db;fill-opacity:1;stroke:none;stroke-width:9.525;stroke-linecap:round;stroke-linejoin:round;stroke-dasharray:none;stroke-opacity:1;paint-order:fill markers stroke"
               d="m -5617.5738,352.72617 c 0,0 -10.6732,51.47315 44.059,68.32852 l 55.0377,16.94945 c 0,0 3.4138,-50.0006 -41.4174,-66.26428 -18.6105,-6.75143 -31.8892,-8.26065 -57.6793,-19.01369 z"
               id="path784" /></g><g
             id="g786"
             transform="translate(577.68798,-175.58825)"><path
               style="opacity:1;fill:#60dbf9;fill-opacity:1;stroke:none;stroke-width:9.525;stroke-linecap:round;stroke-linejoin:round;stroke-dasharray:none;stroke-opacity:1;paint-order:fill markers stroke"
               d="m -5645.3736,327.12169 c 0,0 -5.6359,25.59674 -4.6966,40.39119 0.9393,14.79445 4.2172,31.6435 26.0664,45.32267 20.9297,13.10352 76.7902,14.08996 99.0993,54.95081 15.499,-33.11138 5.1663,-91.81951 -54.2463,-100.50831 -50.9586,-15.96861 -56.8295,-24.89225 -66.2228,-40.15636 z"
               id="path785" /><path
               style="opacity:1;fill:#98e4fb;fill-opacity:1;stroke:none;stroke-width:9.525;stroke-linecap:round;stroke-linejoin:round;stroke-dasharray:none;stroke-opacity:1;paint-order:fill markers stroke"
               d="m -5617.5738,352.72617 c 0,0 -10.6732,51.47315 44.059,68.32852 l 55.0377,16.94945 c 0,0 3.4138,-50.0006 -41.4174,-66.26428 -18.6105,-6.75143 -32.5937,-8.73031 -57.6793,-19.01369 z"
               id="path786" /></g><g
             id="g788"
             transform="translate(577.68798,-237.35947)"><path
               style="opacity:1;fill:#fd98a0;fill-opacity:1;stroke:none;stroke-width:9.525;stroke-linecap:round;stroke-linejoin:round;stroke-dasharray:none;stroke-opacity:1;paint-order:fill markers stroke"
               d="m -5645.3736,327.12169 c 0,0 -5.6359,25.59674 -4.6966,40.39119 0.9393,14.79445 6.1056,33.81588 26.0664,45.32267 19.9608,11.5068 79.6082,13.62029 99.0993,54.95081 15.499,-33.11138 5.1663,-91.81951 -54.2463,-100.50831 -50.9586,-15.96861 -56.8295,-24.89225 -66.2228,-40.15636 z"
               id="path787" /><path
               style="opacity:1;fill:#fdb4bd;fill-opacity:1;stroke:none;stroke-width:9.525;stroke-linecap:round;stroke-linejoin:round;stroke-dasharray:none;stroke-opacity:1;paint-order:fill markers stroke"
               d="m -5617.5738,352.72617 c 0,0 -10.6732,51.47315 44.059,68.32852 l 55.0377,16.94945 c 0,0 3.4138,-50.0006 -41.4174,-66.26428 -18.6105,-6.75143 -33.2982,-6.85165 -57.6793,-19.01369 z"
               id="path788" /></g><g
             id="g789"
             transform="translate(577.68798,-298.13437)"
             style="opacity:1" /></g></g></g></g></svg>
