<?xml version="1.0" encoding="UTF-8" standalone="no"?>
<!-- Created with Inkscape (http://www.inkscape.org/) -->

<svg
   width="104.26379"
   height="198.25929"
   viewBox="0 0 104.26379 198.25929"
   version="1.1"
   id="svg1"
   xml:space="preserve"
   xmlns="http://www.w3.org/2000/svg"
   xmlns:svg="http://www.w3.org/2000/svg"><defs
     id="defs1" /><g
     id="layer1"
     transform="translate(1050.1897,256.51617)"><g
       id="g67"
       transform="translate(-2129.1118,-403.71556)"><path
         style="fill:#96181a;fill-opacity:1;stroke:#3e3d25;stroke-width:1;stroke-linecap:round;stroke-linejoin:round;stroke-dasharray:none;stroke-opacity:1;paint-order:markers stroke fill"
         d="m 1131.1985,344.95869 c 0,0 21.3697,-1.409 25.5967,-2.81799 4.227,-1.409 17.1428,-10.33263 19.4911,-21.83943 2.3483,-11.50679 -1.6438,-47.67099 -3.2877,-55.89013 -1.6438,-8.21914 -3.2876,-30.2934 -3.2876,-30.2934 0,0 5.636,-29.35406 5.4011,-43.44401 -0.2348,-14.08995 -5.6359,-41.80019 -43.9136,-42.50469 -38.2777,-0.70449 -43.6789,31.70239 -43.4441,41.80019 0.2349,10.0978 3.5225,39.21703 3.2877,42.26985 -0.2348,3.05283 -1.6438,38.2777 -3.0528,43.91368 -1.409,5.63598 -1.8787,39.6867 -1.8787,39.6867 0,0 2.3483,17.61244 19.2563,26.30124 17.3776,2.58316 25.8316,2.81799 25.8316,2.81799 z"
         id="path35" /><path
         style="fill:#363a2e;fill-opacity:1;stroke:#3f3d37;stroke-width:1;stroke-linecap:round;stroke-linejoin:round;stroke-dasharray:none;stroke-opacity:1;paint-order:markers stroke fill"
         d="m 1104.8972,329.22491 c 0,0 22.0743,-4.69665 26.0664,-4.46182 3.9922,0.23484 26.3013,4.69665 26.3013,4.69665 l 2.3483,-22.30909 -5.8708,-14.55961 -45.7924,-0.7045 -5.4011,15.73378 z"
         id="path36" /><path
         style="fill:#e1181e;fill-opacity:1;stroke:#3e3d25;stroke-width:1;stroke-linecap:round;stroke-linejoin:round;stroke-dasharray:none;stroke-opacity:1;paint-order:markers stroke fill"
         d="m 1140.1221,331.57324 3.7573,-6.10565 c 0,0 21.3698,-71.15425 25.8316,-90.41052 4.4618,-19.25626 6.1056,-42.97435 5.8708,-47.43616 -0.2348,-4.46182 -3.7573,-39.92153 -44.1485,-39.92153 -40.3912,0 -44.1485,33.58105 -43.9137,41.09569 0.2348,7.51464 0,22.07425 4.4618,44.61818 4.4618,22.54392 26.3013,92.99367 26.3013,92.99367 l 3.9921,5.63598 z"
         id="path37" /><g
         id="g39"
         transform="translate(61.77122,-61.771217)"><path
           style="fill:#fcfff4;fill-opacity:0.890244;stroke:none;stroke-width:1;stroke-linecap:round;stroke-linejoin:round;stroke-dasharray:none;stroke-opacity:1;paint-order:markers stroke fill"
           d="m 1062.0128,406.29566 0.3522,-29.11924 6.3992,0.0587 -0.2935,29.35407 z"
           id="path38" /><path
           style="fill:#fcfff4;fill-opacity:0.925305;stroke:none;stroke-width:1;stroke-linecap:round;stroke-linejoin:round;stroke-dasharray:none;stroke-opacity:1;paint-order:markers stroke fill"
           d="m 1070.5255,406.76532 -0.2638,-29.2083 6.1925,-0.3665 -0.024,29.16811 z"
           id="path39" /></g><path
         style="fill:#4b5e59;fill-opacity:1;stroke:#3e3d25;stroke-width:0.2;stroke-linecap:round;stroke-linejoin:round;stroke-opacity:1;paint-order:markers stroke fill"
         d="m 1102.0792,249.14702 -1.8786,-26.0664 c 0,0 -1.8787,-29.82373 31.2327,-29.5889 33.1114,0.23483 30.763,29.35406 30.763,29.35406 l -3.2876,33.81589 c 0,0 0.4697,14.32478 -28.1799,14.32478 -28.6496,0 -27.4754,-11.97646 -28.6496,-21.83943 z"
         id="path40" /><path
         style="fill:#343b2e;fill-opacity:1;stroke:none;stroke-width:1;stroke-linecap:round;stroke-linejoin:round;stroke-dasharray:none;stroke-opacity:1;paint-order:markers stroke fill"
         d="m 1126.6192,234.64612 -0.1761,-2.93541 9.8043,-0.35225 -0.059,3.63991 -0.1761,0.70449 -9.3933,-0.17612 z"
         id="path41" /><path
         style="fill:#e1181e;fill-opacity:1;stroke:none;stroke-width:0.2;stroke-linecap:round;stroke-linejoin:round;stroke-opacity:1;paint-order:markers stroke fill"
         d="m 1094.0949,286.48539 c 0,0 11.272,-0.93933 15.2641,-39.92152 0,-0.46967 5.1663,-12.44613 21.6046,-11.97646 16.4383,0.46966 22.3091,11.97646 22.3091,11.97646 0,0 0,27.4754 14.3248,39.92152 l -17.8473,-9.3933 h -38.5125 z"
         id="path42" /><path
         style="fill:#363a2e;fill-opacity:1;stroke:none;stroke-width:1;stroke-linecap:round;stroke-linejoin:round;stroke-dasharray:none;stroke-opacity:1;paint-order:markers stroke fill"
         d="m 1090.0461,272.49077 7.8044,-0.24907 v 14.03136 l -4.1513,2.5738 -4.5664,-14.44649 z"
         id="path43" /><path
         style="fill:#e6171d;fill-opacity:1;stroke:#3e3d25;stroke-width:1;stroke-linecap:round;stroke-linejoin:round;stroke-dasharray:none;stroke-opacity:1;paint-order:markers stroke fill"
         d="m 1105.6017,341.67103 -2.3483,-33.34621 11.5068,-30.52823 -0.9394,-19.4911 c 0,0 -0.4696,-4.22698 -4.6966,-11.50679 0.2348,-0.7045 -1.409,34.05071 -15.2641,39.92153 -2.1135,-4.22699 -5.1663,-15.73378 -4.6967,-17.37761 -0.2348,0 -1.6438,9.62813 -1.8786,14.32478 -0.2349,4.69665 -11.0371,46.02718 18.3169,58.00363 z"
         id="path44" /><path
         style="fill:#363a2e;fill-opacity:1;stroke:none;stroke-width:1;stroke-linecap:round;stroke-linejoin:round;stroke-dasharray:none;stroke-opacity:1;paint-order:markers stroke fill"
         d="m 1171.6605,280.37823 -0.5812,-7.97048 -7.0572,0.41513 0.4982,13.45018 3.9852,2.82288 z"
         id="path45" /><path
         style="fill:#e6171d;fill-opacity:1;stroke:#3e3d25;stroke-width:1;stroke-linecap:round;stroke-linejoin:round;stroke-dasharray:none;stroke-opacity:1;paint-order:markers stroke fill"
         d="m 1156.6005,341.84715 2.2896,-33.52233 -11.5068,-30.52823 0.9394,-19.4911 c 0,0 0.4696,-4.22698 4.6966,-11.50679 -0.2348,-0.7045 1.409,34.05071 15.2641,39.92153 2.1135,-4.22699 5.9351,-15.92918 5.4655,-17.57301 0.2348,0 0.7274,10.07163 1.5795,14.6963 0.411,2.23091 12.7983,45.26398 -18.7279,58.00363 z"
         id="path46" /><g
         id="g48"
         transform="translate(61.77122,-61.771217)"><path
           style="fill:#fcfff4;fill-opacity:1;stroke:none;stroke-width:1;stroke-linecap:round;stroke-linejoin:round;stroke-dasharray:none;stroke-opacity:1;paint-order:markers stroke fill"
           d="m 1061.788,340.75816 -0.9963,-43.43014 c 0,0 2.6057,-0.93673 7.3893,-0.99041 0,3.90221 0.166,44.33666 0.166,44.33666 z"
           id="path47" /><path
           style="fill:#fcfff4;fill-opacity:1;stroke:none;stroke-width:1;stroke-linecap:round;stroke-linejoin:round;stroke-dasharray:none;stroke-opacity:1;paint-order:markers stroke fill"
           d="m 1070.3154,340.78249 -0.2785,-44.34257 c 0,0 5.2014,0.15268 7.6779,1.33346 -0.083,2.82287 -0.8404,42.97385 -0.8404,42.97385 z"
           id="path48" /></g><path
         style="fill:#4f5d54;fill-opacity:1;stroke:#3f3d37;stroke-width:1;stroke-linecap:round;stroke-linejoin:round;stroke-dasharray:none;stroke-opacity:1;paint-order:markers stroke fill"
         d="m 1141.8246,315.31109 c 0,0 11.4481,-16.14474 2.5244,-36.1055 -13.1506,-0.46967 -27.0057,0 -27.0057,0 0,0 -11.7416,12.21129 1.6438,35.92937 14.7945,0.23483 22.8375,0.17613 22.8375,0.17613 z"
         id="path49" /><path
         style="fill:#323b3a;fill-opacity:1;stroke:none;stroke-width:0.2;stroke-linecap:round;stroke-linejoin:round;stroke-opacity:1;paint-order:markers stroke fill"
         d="m 1118.8991,315.07625 c -3.1419,-10.79691 -3.567,-22.80544 -1.7026,-36.1055 l 27.358,0.0881 c 0.7829,12.78536 0.3274,24.65888 -2.6417,36.19356 z"
         id="path50" /><g
         id="g53"
         transform="translate(61.77122,-61.771217)"><path
           style="fill:#313c43;fill-opacity:1;stroke:none;stroke-width:1;stroke-linecap:round;stroke-linejoin:round;stroke-dasharray:none;stroke-opacity:1;paint-order:markers stroke fill"
           d="m 1046.7659,262.895 -0.3522,-29.5889 11.6242,-5.98823 19.9607,-0.23483 13.6203,5.28373 0.1174,29.94114 z"
           id="path51" /><path
           style="fill:#842121;fill-opacity:1;stroke:none;stroke-width:1;stroke-linecap:round;stroke-linejoin:round;stroke-dasharray:none;stroke-opacity:1;paint-order:markers stroke fill"
           d="m 1046.5311,233.42352 2.4657,7.9843 c 0,0 0.5871,3.40507 4.5793,2.58316 3.9921,-0.82192 12.9157,-2.70058 15.1467,-2.58316 2.2309,0.11742 15.3815,2.23091 15.3815,2.23091 0,0 4.1096,1.87866 7.3972,-6.22306 0,1.87866 0.5871,24.89224 0.5871,24.89224 l -45.3227,0.58709 z"
           id="path52" /><path
           style="fill:#e2191f;fill-opacity:1;stroke:none;stroke-width:1;stroke-linecap:round;stroke-linejoin:round;stroke-dasharray:none;stroke-opacity:1;paint-order:markers stroke fill"
           d="m 1046.7897,262.44465 c 0,0 -0.083,-3.65314 5.4797,-10.2952 5.5627,-6.64207 6.559,-9.04982 6.559,-9.04982 l 2.7399,-16.27306 15.5258,-0.16605 2.9059,17.85055 c 0,0 11.7897,12.869 11.6236,17.51845 -1.9096,0.083 -44.8339,0.41513 -44.8339,0.41513 z"
           id="path53" /></g><g
         id="g55"
         transform="translate(61.77122,-61.771217)"><path
           style="fill:#fcfff4;fill-opacity:1;stroke:none;stroke-width:1;stroke-linecap:round;stroke-linejoin:round;stroke-dasharray:none;stroke-opacity:1;paint-order:markers stroke fill"
           d="m 1062.3155,209.8425 -0.4981,45.92483 6.3099,-0.48894 0.3321,-45.88215 z"
           id="path54" /><path
           style="fill:#fcfff4;fill-opacity:1;stroke:none;stroke-width:1;stroke-linecap:round;stroke-linejoin:round;stroke-dasharray:none;stroke-opacity:1;paint-order:markers stroke fill"
           d="m 1070.369,209.43806 -0.166,45.99631 6.8764,0.38117 -0.9816,-46.1284 z"
           id="path55" /></g><path
         style="fill:#343b2e;fill-opacity:1;stroke:none;stroke-width:1;stroke-linecap:round;stroke-linejoin:round;stroke-dasharray:none;stroke-opacity:1;paint-order:markers stroke fill"
         d="m 1100.3413,225.16605 5.8948,-1.49446 c 0,0 1.0794,8.0535 9.1329,7.22324 8.0535,-0.83026 11.1254,-9.38192 11.1254,-9.38192 0,0 27.3986,-1.07933 35.3691,4.31735 0.332,-1.57749 3.9051,-32.41022 -30.7196,-32.54613 -32.9627,-0.12938 -30.8857,29.39115 -30.8026,31.88192 z"
         id="path56" /><path
         style="fill:#363a2e;fill-opacity:1;stroke:#354232;stroke-width:1;stroke-linecap:round;stroke-linejoin:round;stroke-dasharray:none;stroke-opacity:1;paint-order:markers stroke fill"
         d="m 1105.4843,173.64837 0.8219,-10.68488 -3.4051,-3.17024 c 0,0 -10.6848,11.27196 -11.6242,15.73378 0,-0.11741 -1.2916,2.40704 -0.3522,3.37572 0.9393,0.96868 3.5225,-0.23483 3.5225,-0.23483 z"
         id="path57" /><path
         style="fill:#bcd9d1;fill-opacity:1;stroke:none;stroke-width:1;stroke-linecap:round;stroke-linejoin:round;stroke-dasharray:none;stroke-opacity:1;paint-order:markers stroke fill"
         d="m 1103.5793,162.19096 -9.0498,14.48801 c 0,0 -0.6227,1.45295 -1.9511,0.70571 -1.3284,-0.74723 2.4493,-6.06088 2.4493,-6.06088 0,0 5.2721,-7.59686 8.5516,-9.13284 z"
         id="path58" /><path
         style="fill:#bcd9d1;fill-opacity:1;stroke:none;stroke-width:1;stroke-linecap:round;stroke-linejoin:round;stroke-dasharray:none;stroke-opacity:1;paint-order:markers stroke fill"
         d="m 1098.2925,175.61509 0.059,-2.61251 c 0,0 0.2348,-1.05674 1.5264,-1.17416 1.2915,-0.11742 3.2876,-0.20548 3.2876,-0.20548 0,0 1.2622,-0.17612 1.2622,0.58708 0,0.76321 -0.1174,0.96869 -0.1174,0.96869 z"
         id="path59" /><path
         style="fill:#363a2e;fill-opacity:1;stroke:#354232;stroke-width:1;stroke-linecap:round;stroke-linejoin:round;stroke-dasharray:none;stroke-opacity:1;paint-order:markers stroke fill"
         d="m 1156.3354,173.64837 -0.8219,-10.68488 3.4051,-3.17024 c 0,0 10.6848,11.27196 11.6242,15.73378 0,-0.11741 1.2916,2.40704 0.3522,3.37572 -0.9393,0.96868 -3.5225,-0.23483 -3.5225,-0.23483 z"
         id="path60" /><path
         style="fill:#bcd9d1;fill-opacity:1;stroke:none;stroke-width:1;stroke-linecap:round;stroke-linejoin:round;stroke-dasharray:none;stroke-opacity:1;paint-order:markers stroke fill"
         d="m 1158.662,162.19096 9.0498,14.48801 c 0,0 0.6227,1.45295 1.9511,0.70571 1.3284,-0.74723 -2.4493,-6.06088 -2.4493,-6.06088 0,0 -5.2721,-7.59686 -8.5516,-9.13284 z"
         id="path61" /><path
         style="fill:#bcd9d1;fill-opacity:1;stroke:none;stroke-width:1;stroke-linecap:round;stroke-linejoin:round;stroke-dasharray:none;stroke-opacity:1;paint-order:markers stroke fill"
         d="m 1163.9488,175.61509 -0.059,-2.61251 c 0,0 -0.2348,-1.05674 -1.5264,-1.17416 -1.2915,-0.11742 -3.2876,-0.20548 -3.2876,-0.20548 0,0 -1.2622,-0.17612 -1.2622,0.58708 0,0.76321 0.1174,0.96869 0.1174,0.96869 z"
         id="path62" /><g
         id="g64"
         transform="translate(62.186349,-61.854243)"><path
           style="fill:#96181a;fill-opacity:1;stroke:#3e3d25;stroke-width:1;stroke-linecap:round;stroke-linejoin:round;stroke-dasharray:none;stroke-opacity:1;paint-order:markers stroke fill"
           d="m 1027.6858,293.39387 -8.2779,3.28765 h -2.1722 c 0,0 0.1174,-2.75928 0.7045,-3.81602 0.5871,-1.05675 5.1957,-6.8395 6.634,-6.81015 1.4384,0.0294 4.0509,3.02347 3.1116,7.33852 z"
           id="path63" /><path
           style="fill:#e81523;fill-opacity:1;stroke:none;stroke-width:0.875168;stroke-linecap:round;stroke-linejoin:round;stroke-dasharray:none;stroke-opacity:1;paint-order:markers stroke fill"
           d="m 1026.2489,293.80621 -7.1662,2.90874 h -1.8804 c 0,0 0.1016,-2.44126 0.6098,-3.37621 0.5083,-0.93496 4.4979,-6.05122 5.7431,-6.02526 1.2452,0.026 3.5068,2.67501 2.6937,6.49273 z"
           id="path64" /></g><g
         id="g66"
         transform="matrix(-1,0,0,1,2199.9216,-62.269372)"><path
           style="fill:#95181b;fill-opacity:1;stroke:#3e3d25;stroke-width:1;stroke-linecap:round;stroke-linejoin:round;stroke-dasharray:none;stroke-opacity:1;paint-order:markers stroke fill"
           d="m 1027.6858,293.39387 -8.2779,3.28765 h -2.1722 c 0,0 0.1174,-2.75928 0.7045,-3.81602 0.5871,-1.05675 5.1957,-6.8395 6.634,-6.81015 1.4384,0.0294 4.0509,3.02347 3.1116,7.33852 z"
           id="path65" /><path
           style="fill:#e81523;fill-opacity:1;stroke:none;stroke-width:0.875168;stroke-linecap:round;stroke-linejoin:round;stroke-dasharray:none;stroke-opacity:1;paint-order:markers stroke fill"
           d="m 1026.2489,293.80621 -7.1662,2.90874 h -1.8804 c 0,0 0.1016,-2.44126 0.6098,-3.37621 0.5083,-0.93496 4.4979,-6.05122 5.7431,-6.02526 1.2452,0.026 3.5068,2.67501 2.6937,6.49273 z"
           id="path66" /></g></g></g></svg>
