<?xml version="1.0" encoding="UTF-8" standalone="no"?>
<!-- Created with Inkscape (http://www.inkscape.org/) -->

<svg
   width="26.771484"
   height="26.586487"
   viewBox="0 0 26.771484 26.586487"
   version="1.1"
   id="svg1"
   xml:space="preserve"
   xmlns="http://www.w3.org/2000/svg"
   xmlns:svg="http://www.w3.org/2000/svg"><defs
     id="defs1" /><g
     id="layer1"
     transform="translate(1380.5767,309.21591)"><g
       id="g222"
       transform="matrix(0.03936534,0,0,0.03936534,-1281.7476,-239.80147)"><path
         style="opacity:1;fill:#f54331;fill-opacity:1;stroke:none;stroke-width:1;stroke-linecap:round;stroke-linejoin:round;stroke-dasharray:none;stroke-opacity:1;paint-order:markers stroke fill"
         d="m -2141.4023,-1220.4062 -170.0188,123.9915 44.1485,-144.6568 -233.8931,47.9058 171.8974,-140.8995 -181.2907,-138.0815 203.8346,15.0293 -192.5627,-303.4036 321.2509,205.7133 31.9372,-206.6526 93.933,185.9873 213.2279,-187.866 -101.4476,272.4057 109.9016,-30.0585 -108.0229,161.5647 102.3869,30.9979 -105.2049,57.2991 90.1757,160.6255 -184.1087,-105.205 -41.3306,127.7489 z"
         id="path222" /><path
         style="opacity:1;fill:#faa200;fill-opacity:1;stroke:none;stroke-width:1;stroke-linecap:round;stroke-linejoin:round;stroke-dasharray:none;stroke-opacity:1;paint-order:markers stroke fill"
         d="m -2133.8877,-1245.7681 -148.4141,110.8409 43.2091,-127.7489 -207.5919,41.3305 149.3535,-110.8409 -162.5041,-121.1736 189.7447,16.908 -176.5941,-274.2844 282.7383,184.1087 25.362,-188.8054 79.843,167.2008 185.048,-162.5041 -95.8116,245.1651 105.2049,-30.9979 -93.933,142.7782 82.6611,27.2406 -85.4791,46.9665 82.6611,141.8388 -164.3828,-98.6296 -34.7552,111.7802 z"
         id="path221" /><path
         style="opacity:1;fill:#ffe737;fill-opacity:1;stroke:none;stroke-width:1;stroke-linecap:round;stroke-linejoin:round;stroke-dasharray:none;stroke-opacity:1;paint-order:markers stroke fill"
         d="m -2219.3667,-1216.6489 39.4518,-89.2364 -153.1108,34.7552 113.659,-72.3284 -144.6569,-71.3891 158.7468,14.09 -119.2949,-194.4413 190.684,128.6882 8.454,-159.6861 61.0564,154.9894 126.8096,-139.9601 -85.479,189.7446 104.2656,-30.9979 -99.569,103.3263 85.479,29.1193 -84.5397,12.2113 71.3891,99.569 -115.5376,-70.4498 -22.5439,74.2071 -39.4519,-84.5397 z"
         id="path220" /><path
         style="opacity:1;fill:#fffcda;fill-opacity:1;stroke:none;stroke-width:1;stroke-linecap:round;stroke-linejoin:round;stroke-dasharray:none;stroke-opacity:1;paint-order:markers stroke fill"
         d="m -2067.1953,-1449.6028 87.3577,-97.6903 -65.7531,145.5962 91.115,-28.1799 -86.4183,86.4183 64.8138,17.8473 -61.9958,9.3933 48.8451,70.4498 -77.025,-51.6632 -20.6653,67.6318 -32.8765,-79.8431 -66.6925,56.3598 25.3619,-65.7531 -107.0836,20.6653 73.2678,-45.0879 -99.569,-51.6631 113.6589,10.3326 -108.9623,-170.9581 165.3221,108.9623 7.5147,-128.6882 z"
         id="path219" /></g></g></svg>
